<svg width="1449" height="672" viewBox="0 0 1449 672" fill="none" xmlns="http://www.w3.org/2000/svg">
<path d="M381.44 460.64C382.613 460.64 383.493 461.013 384.08 461.76C384.72 462.453 385.04 463.36 385.04 464.48C385.04 465.653 384.693 466.747 384 467.76C383.307 468.72 382.4 469.547 381.28 470.24C378.453 472 374.24 472.88 368.64 472.88C366.293 472.88 363.573 472.693 360.48 472.32L348.64 516.72C348.16 518.373 347.92 519.733 347.92 520.8C347.92 522.133 348.4 523.067 349.36 523.6C350.373 524.08 352.133 524.347 354.64 524.4L354.32 526C351.547 525.84 347.573 525.76 342.4 525.76C337.173 525.76 333.28 525.84 330.72 526L331.04 524.4C333.28 524.293 335.013 524.027 336.24 523.6C337.52 523.12 338.507 522.373 339.2 521.36C339.893 520.293 340.56 518.747 341.2 516.72L353.28 471.36C348.96 470.773 345.52 470.48 342.96 470.48C338.32 470.48 335.333 470.933 334 471.84C334.427 472.427 334.773 473.147 335.04 474C335.307 474.853 335.44 475.68 335.44 476.48C335.44 477.707 335.093 478.8 334.4 479.76C333.707 480.667 332.72 481.12 331.44 481.12C330.32 481.12 329.44 480.773 328.8 480.08C328.213 479.333 327.92 478.347 327.92 477.12C327.92 474.347 329.333 472.267 332.16 470.88C334.667 469.653 338.24 469.04 342.88 469.04C345.013 469.04 347.04 469.147 348.96 469.36C350.88 469.52 353.307 469.787 356.24 470.16C359.013 470.533 361.333 470.827 363.2 471.04C365.12 471.2 367.12 471.28 369.2 471.28C371.6 471.28 373.6 471.147 375.2 470.88C376.8 470.613 378.24 470.16 379.52 469.52C378.187 468.187 377.52 466.693 377.52 465.04C377.52 463.867 377.84 462.853 378.48 462C379.173 461.093 380.16 460.64 381.44 460.64ZM418.094 516.32H419.934L419.614 517.36C418.654 520.667 417.374 523.12 415.774 524.72C414.228 526.32 412.228 527.12 409.774 527.12C407.321 527.12 405.534 526.4 404.414 524.96C403.348 523.467 402.868 521.627 402.974 519.44L403.294 514.4C403.348 513.92 403.374 513.2 403.374 512.24C403.374 510.107 403.028 508.427 402.334 507.2C401.694 505.92 400.521 504.96 398.814 504.32C397.108 503.627 394.654 503.227 391.454 503.12H390.974H389.934L386.094 517.52C385.668 519.227 385.454 520.507 385.454 521.36C385.454 522.373 385.828 523.12 386.574 523.6C387.374 524.027 388.788 524.293 390.814 524.4L390.494 526C388.041 525.84 384.734 525.76 380.574 525.76C375.881 525.76 372.414 525.84 370.174 526L370.494 524.4C372.414 524.293 373.854 524.08 374.814 523.76C375.774 523.44 376.521 522.827 377.054 521.92C377.641 521.013 378.201 519.547 378.734 517.52L387.214 485.84C387.588 484.133 387.774 482.96 387.774 482.32C387.774 481.2 387.374 480.4 386.574 479.92C385.828 479.387 384.468 479.067 382.494 478.96L382.894 477.36C385.028 477.52 388.308 477.6 392.734 477.6C395.294 477.6 397.214 477.573 398.494 477.52L404.414 477.44C409.641 477.44 413.588 478.32 416.254 480.08C418.974 481.787 420.334 484.133 420.334 487.12C420.334 491.12 418.521 494.48 414.894 497.2C411.268 499.867 406.308 501.653 400.014 502.56L401.694 502.8C405.054 503.44 407.428 504.533 408.814 506.08C410.254 507.573 410.868 510 410.654 513.36L410.414 517.6C410.361 518.08 410.334 518.72 410.334 519.52C410.334 521.013 410.521 522.16 410.894 522.96C411.268 523.76 411.908 524.16 412.814 524.16C413.774 524.16 414.628 523.627 415.374 522.56C416.121 521.44 416.894 519.733 417.694 517.44L418.094 516.32ZM390.414 501.52H391.774C396.894 501.52 400.921 501.013 403.854 500C406.841 498.987 408.974 497.413 410.254 495.28C411.588 493.093 412.254 490.213 412.254 486.64C412.254 484.027 411.454 482.107 409.854 480.88C408.254 479.6 405.668 478.96 402.094 478.96C400.494 478.96 399.241 479.173 398.334 479.6C397.428 479.973 396.681 480.64 396.094 481.6C395.561 482.56 395.054 483.973 394.574 485.84L390.414 501.52ZM470.451 502.72C468.531 510.08 465.918 515.733 462.611 519.68C460.638 521.973 458.211 523.787 455.331 525.12C452.505 526.453 449.465 527.12 446.211 527.12C440.238 527.12 436.131 525.68 433.891 522.8C432.931 521.573 432.211 520.32 431.731 519.04C431.251 517.76 431.011 516.293 431.011 514.64C431.011 511.973 431.705 508.08 433.091 502.96L437.651 485.84C438.078 484.027 438.291 482.747 438.291 482C438.291 480.827 437.891 480.053 437.091 479.68C436.345 479.307 434.958 479.067 432.931 478.96L433.411 477.36C435.545 477.52 438.985 477.6 443.731 477.6C447.838 477.6 451.171 477.52 453.731 477.36L453.251 478.96C451.278 479.067 449.811 479.28 448.851 479.6C447.945 479.92 447.198 480.533 446.611 481.44C446.078 482.347 445.545 483.813 445.011 485.84L440.051 504.32C438.878 508.853 438.291 512.453 438.291 515.12C438.291 518.053 439.011 520.32 440.451 521.92C441.891 523.52 444.318 524.32 447.731 524.32C453.331 524.32 457.731 522.507 460.931 518.88C464.185 515.253 466.665 510.16 468.371 503.6L472.931 486.64C473.305 485.307 473.491 484.107 473.491 483.04C473.491 481.6 473.011 480.587 472.051 480C471.145 479.413 469.651 479.067 467.571 478.96L467.971 477.36C469.891 477.52 472.585 477.6 476.051 477.6C479.305 477.6 481.811 477.52 483.571 477.36L483.171 478.96C480.771 479.067 478.958 479.653 477.731 480.72C476.505 481.787 475.491 483.76 474.691 486.64L470.451 502.72ZM523.621 476.8C521.701 481.653 520.127 487.093 518.901 493.12H517.301C517.621 491.573 517.781 490.08 517.781 488.64C517.781 485.44 516.847 482.827 514.981 480.8C513.114 478.773 510.207 477.76 506.261 477.76C503.007 477.76 500.341 478.48 498.261 479.92C496.234 481.36 495.221 483.467 495.221 486.24C495.221 488.8 496.074 490.987 497.781 492.8C499.487 494.56 502.101 496.587 505.621 498.88C508.287 500.64 510.367 502.107 511.861 503.28C513.354 504.453 514.607 505.867 515.621 507.52C516.634 509.173 517.141 511.067 517.141 513.2C517.141 516.24 516.127 518.827 514.101 520.96C512.127 523.04 509.594 524.587 506.501 525.6C503.407 526.613 500.234 527.12 496.981 527.12C494.101 527.12 491.834 526.773 490.181 526.08C488.527 525.44 486.981 524.56 485.541 523.44C484.527 522.64 483.594 522.24 482.741 522.24C482.047 522.24 481.487 522.56 481.061 523.2C480.634 523.787 480.074 524.907 479.381 526.56H477.781C478.634 524.533 479.461 522.107 480.261 519.28C481.114 516.4 482.101 512.427 483.221 507.36H484.821C484.341 509.867 484.101 511.84 484.101 513.28C484.101 517.173 485.167 520.187 487.301 522.32C489.487 524.453 492.821 525.52 497.301 525.52C500.927 525.52 503.754 524.827 505.781 523.44C507.861 522 508.901 519.84 508.901 516.96C508.901 514.293 508.127 512.08 506.581 510.32C505.034 508.507 502.714 506.56 499.621 504.48C497.007 502.72 495.007 501.28 493.621 500.16C492.287 499.04 491.141 497.653 490.181 496C489.221 494.347 488.741 492.427 488.741 490.24C488.741 487.307 489.567 484.8 491.221 482.72C492.927 480.587 495.141 478.987 497.861 477.92C500.581 476.8 503.487 476.24 506.581 476.24C508.767 476.24 510.607 476.507 512.101 477.04C513.594 477.573 515.141 478.427 516.741 479.6C517.274 480.027 517.781 480.373 518.261 480.64C518.741 480.907 519.114 481.04 519.381 481.04C519.807 481.04 520.207 480.72 520.581 480.08C521.007 479.387 521.487 478.293 522.021 476.8H523.621ZM576.677 468.64C577.85 468.64 578.73 469.013 579.317 469.76C579.957 470.453 580.277 471.333 580.277 472.4C580.277 474.533 579.05 476.507 576.597 478.32C575.05 479.227 573.424 479.893 571.717 480.32C570.01 480.693 567.957 480.88 565.557 480.88C563.53 480.88 561.264 480.747 558.757 480.48L548.277 516.72C547.797 518.32 547.557 519.653 547.557 520.72C547.557 522.053 548.064 522.987 549.077 523.52C550.09 524.053 551.824 524.347 554.277 524.4L553.957 526C551.184 525.84 547.21 525.76 542.037 525.76C536.81 525.76 532.917 525.84 530.357 526L530.677 524.4C532.97 524.293 534.73 524.027 535.957 523.6C537.184 523.173 538.144 522.453 538.837 521.44C539.584 520.427 540.25 518.853 540.837 516.72L551.637 479.44C546.944 478.8 543.584 478.48 541.557 478.48C538.144 478.48 535.637 478.933 534.037 479.84C534.464 480.427 534.81 481.147 535.077 482C535.344 482.853 535.477 483.68 535.477 484.48C535.477 485.707 535.13 486.8 534.437 487.76C533.744 488.667 532.757 489.12 531.477 489.12C530.357 489.12 529.477 488.773 528.837 488.08C528.25 487.333 527.957 486.347 527.957 485.12C527.957 482.4 529.344 480.32 532.117 478.88C534.41 477.653 537.424 477.04 541.157 477.04C544.197 477.04 548.437 477.413 553.877 478.16C555.85 478.427 557.877 478.693 559.957 478.96C562.09 479.173 564.064 479.28 565.877 479.28C567.85 479.28 569.504 479.147 570.837 478.88C572.17 478.613 573.477 478.16 574.757 477.52C573.424 476.187 572.757 474.693 572.757 473.04C572.757 471.867 573.077 470.853 573.717 470C574.41 469.093 575.397 468.64 576.677 468.64ZM645.818 468.64C646.991 468.64 647.871 469.013 648.458 469.76C649.098 470.453 649.418 471.333 649.418 472.4C649.418 474.533 648.191 476.507 645.738 478.32C644.191 479.227 642.564 479.893 640.858 480.32C639.151 480.693 637.098 480.88 634.698 480.88C632.671 480.88 630.404 480.747 627.898 480.48L617.418 516.72C616.938 518.32 616.698 519.653 616.698 520.72C616.698 522.053 617.204 522.987 618.218 523.52C619.231 524.053 620.964 524.347 623.418 524.4L623.098 526C620.324 525.84 616.351 525.76 611.178 525.76C605.951 525.76 602.058 525.84 599.498 526L599.818 524.4C602.111 524.293 603.871 524.027 605.098 523.6C606.324 523.173 607.284 522.453 607.978 521.44C608.724 520.427 609.391 518.853 609.978 516.72L620.778 479.44C616.084 478.8 612.724 478.48 610.698 478.48C607.284 478.48 604.778 478.933 603.178 479.84C603.604 480.427 603.951 481.147 604.218 482C604.484 482.853 604.618 483.68 604.618 484.48C604.618 485.707 604.271 486.8 603.578 487.76C602.884 488.667 601.898 489.12 600.618 489.12C599.498 489.12 598.618 488.773 597.978 488.08C597.391 487.333 597.098 486.347 597.098 485.12C597.098 482.4 598.484 480.32 601.258 478.88C603.551 477.653 606.564 477.04 610.298 477.04C613.338 477.04 617.578 477.413 623.018 478.16C624.991 478.427 627.018 478.693 629.098 478.96C631.231 479.173 633.204 479.28 635.017 479.28C636.991 479.28 638.644 479.147 639.978 478.88C641.311 478.613 642.618 478.16 643.898 477.52C642.564 476.187 641.898 474.693 641.898 473.04C641.898 471.867 642.218 470.853 642.858 470C643.551 469.093 644.538 468.64 645.818 468.64ZM693.124 477.6C697.657 477.6 701.097 477.52 703.444 477.36L703.044 478.96C701.07 479.067 699.604 479.28 698.644 479.6C697.737 479.92 696.99 480.533 696.404 481.44C695.87 482.347 695.337 483.813 694.804 485.84L686.404 517.52C685.924 519.547 685.684 520.853 685.684 521.44C685.684 522.56 686.057 523.307 686.804 523.68C687.604 524.053 689.044 524.293 691.124 524.4L690.804 526C688.564 525.84 685.15 525.76 680.564 525.76C676.297 525.76 672.91 525.84 670.404 526L670.724 524.4C672.644 524.293 674.084 524.08 675.044 523.76C676.004 523.44 676.75 522.827 677.284 521.92C677.87 521.013 678.43 519.547 678.964 517.52L682.964 502.32H657.284L653.284 517.52C652.804 519.547 652.564 520.853 652.564 521.44C652.564 522.56 652.937 523.307 653.684 523.68C654.484 524.053 655.924 524.293 658.004 524.4L657.684 526C655.23 525.84 651.844 525.76 647.524 525.76C643.097 525.76 639.71 525.84 637.364 526L637.764 524.4C639.63 524.293 641.017 524.08 641.924 523.76C642.884 523.44 643.63 522.827 644.164 521.92C644.75 520.96 645.31 519.493 645.844 517.52L654.244 485.84C654.67 484.027 654.884 482.747 654.884 482C654.884 480.827 654.484 480.053 653.684 479.68C652.937 479.307 651.55 479.067 649.524 478.96L649.924 477.36C652.11 477.52 655.497 477.6 660.084 477.6C664.35 477.6 667.764 477.52 670.324 477.36L669.924 478.96C667.95 479.067 666.484 479.28 665.524 479.6C664.617 479.92 663.87 480.533 663.284 481.44C662.75 482.347 662.217 483.813 661.684 485.84L657.764 500.72H683.444L687.364 485.84C687.844 484.133 688.084 482.853 688.084 482C688.084 480.827 687.684 480.053 686.884 479.68C686.084 479.307 684.67 479.067 682.644 478.96L683.044 477.36C685.444 477.52 688.804 477.6 693.124 477.6ZM733.029 477.6C741.082 477.6 746.869 477.52 750.389 477.36C749.375 479.867 748.415 482.747 747.509 486C746.709 489.093 746.255 491.013 746.149 491.76H744.309C744.789 489.413 745.029 487.467 745.029 485.92C745.029 483.467 744.362 481.733 743.029 480.72C741.749 479.707 739.562 479.2 736.469 479.2H730.629C728.709 479.2 727.269 479.36 726.309 479.68C725.349 479.947 724.575 480.533 723.989 481.44C723.455 482.347 722.922 483.813 722.389 485.84L718.389 500.72H725.829C728.229 500.72 730.069 499.893 731.349 498.24C732.682 496.533 733.855 494.373 734.869 491.76H736.709C735.429 495.547 734.469 498.8 733.829 501.52L733.349 503.28C732.549 506.32 731.989 508.987 731.669 511.28H729.829C729.882 510.96 729.962 510.4 730.069 509.6C730.175 508.8 730.229 508.107 730.229 507.52C730.229 505.92 729.802 504.667 728.949 503.76C728.149 502.8 726.682 502.32 724.549 502.32H717.909L713.829 517.52C713.349 519.547 713.109 520.827 713.109 521.36C713.109 522.533 713.482 523.307 714.229 523.68C715.029 524 716.469 524.16 718.549 524.16H724.389C727.322 524.16 729.749 523.707 731.669 522.8C733.642 521.893 735.349 520.427 736.789 518.4C738.282 516.373 739.695 513.573 741.029 510H742.869C741.909 512.827 741.269 515.013 740.949 516.56C740.362 518.533 739.695 521.68 738.949 526C735.215 525.84 728.949 525.76 720.149 525.76C710.282 525.76 702.815 525.84 697.749 526L698.149 524.4C700.069 524.293 701.509 524.08 702.469 523.76C703.429 523.44 704.175 522.827 704.709 521.92C705.295 521.013 705.855 519.547 706.389 517.52L714.949 485.84C715.429 483.813 715.669 482.507 715.669 481.92C715.669 480.8 715.269 480.053 714.469 479.68C713.722 479.307 712.335 479.067 710.309 478.96L710.709 477.36C715.722 477.52 723.162 477.6 733.029 477.6ZM832.954 476.48C837.061 476.48 840.394 476.4 842.954 476.24L842.554 477.84C840.581 477.947 839.114 478.16 838.154 478.48C837.248 478.8 836.501 479.413 835.914 480.32C835.381 481.227 834.848 482.693 834.314 484.72L825.594 517.52C825.168 519.333 824.954 520.613 824.954 521.36C824.954 522.533 825.328 523.307 826.074 523.68C826.874 524.053 828.288 524.293 830.314 524.4L829.994 526C827.541 525.84 824.234 525.76 820.074 525.76C815.381 525.76 811.914 525.84 809.674 526L809.994 524.4C811.968 524.293 813.408 524.08 814.314 523.76C815.274 523.44 816.021 522.827 816.554 521.92C817.141 521.013 817.701 519.547 818.234 517.52L827.914 481.44L796.634 526.4H794.874L787.594 480.72L778.074 516.72C777.594 518.747 777.354 520.107 777.354 520.8C777.354 522.08 777.781 522.987 778.634 523.52C779.541 524 781.114 524.293 783.354 524.4L782.954 526C781.034 525.84 778.341 525.76 774.874 525.76C771.621 525.76 769.114 525.84 767.354 526L767.754 524.4C769.621 524.293 771.061 524.027 772.074 523.6C773.141 523.12 773.968 522.373 774.554 521.36C775.141 520.293 775.728 518.747 776.314 516.72L784.794 484.72C785.221 482.907 785.434 481.627 785.434 480.88C785.434 479.707 785.034 478.933 784.234 478.56C783.488 478.187 782.101 477.947 780.074 477.84L780.474 476.24C782.128 476.4 784.501 476.48 787.594 476.48C790.208 476.48 792.448 476.4 794.314 476.24L800.634 517.52L829.114 476.48H832.954ZM862.266 527.12C856.293 527.12 851.52 525.493 847.946 522.24C844.373 518.987 842.586 514.187 842.586 507.84C842.586 502.987 843.946 498.107 846.666 493.2C849.386 488.293 853.173 484.24 858.026 481.04C862.88 477.84 868.346 476.24 874.426 476.24C880.4 476.24 885.173 477.867 888.746 481.12C892.32 484.373 894.106 489.173 894.106 495.52C894.106 500.373 892.746 505.253 890.026 510.16C887.306 515.067 883.52 519.12 878.666 522.32C873.813 525.52 868.346 527.12 862.266 527.12ZM873.706 477.68C869.493 477.68 865.653 479.2 862.186 482.24C858.72 485.28 856 489.227 854.026 494.08C852.106 498.88 851.146 503.84 851.146 508.96C851.146 514.72 852.186 518.96 854.266 521.68C856.4 524.347 859.306 525.68 862.986 525.68C867.2 525.68 871.04 524.16 874.506 521.12C877.973 518.08 880.666 514.16 882.586 509.36C884.56 504.507 885.546 499.52 885.546 494.4C885.546 488.64 884.48 484.427 882.346 481.76C880.266 479.04 877.386 477.68 873.706 477.68ZM960.22 476.48C964.327 476.48 967.66 476.4 970.22 476.24L969.82 477.84C967.847 477.947 966.38 478.16 965.42 478.48C964.513 478.8 963.767 479.413 963.18 480.32C962.647 481.227 962.113 482.693 961.58 484.72L952.86 517.52C952.433 519.333 952.22 520.613 952.22 521.36C952.22 522.533 952.593 523.307 953.34 523.68C954.14 524.053 955.553 524.293 957.58 524.4L957.26 526C954.807 525.84 951.5 525.76 947.34 525.76C942.647 525.76 939.18 525.84 936.94 526L937.26 524.4C939.233 524.293 940.673 524.08 941.58 523.76C942.54 523.44 943.287 522.827 943.82 521.92C944.407 521.013 944.967 519.547 945.5 517.52L955.18 481.44L923.9 526.4H922.14L914.86 480.72L905.34 516.72C904.86 518.747 904.62 520.107 904.62 520.8C904.62 522.08 905.047 522.987 905.9 523.52C906.807 524 908.38 524.293 910.62 524.4L910.22 526C908.3 525.84 905.607 525.76 902.14 525.76C898.887 525.76 896.38 525.84 894.62 526L895.02 524.4C896.887 524.293 898.327 524.027 899.34 523.6C900.407 523.12 901.233 522.373 901.82 521.36C902.407 520.293 902.993 518.747 903.58 516.72L912.06 484.72C912.487 482.907 912.7 481.627 912.7 480.88C912.7 479.707 912.3 478.933 911.5 478.56C910.753 478.187 909.367 477.947 907.34 477.84L907.74 476.24C909.393 476.4 911.767 476.48 914.86 476.48C917.473 476.48 919.713 476.4 921.58 476.24L927.9 517.52L956.38 476.48H960.22ZM999.357 477.6C1007.41 477.6 1013.2 477.52 1016.72 477.36C1015.7 479.867 1014.74 482.747 1013.84 486C1013.04 489.093 1012.58 491.013 1012.48 491.76H1010.64C1011.12 489.413 1011.36 487.467 1011.36 485.92C1011.36 483.467 1010.69 481.733 1009.36 480.72C1008.08 479.707 1005.89 479.2 1002.8 479.2H996.957C995.037 479.2 993.597 479.36 992.637 479.68C991.677 479.947 990.904 480.533 990.317 481.44C989.784 482.347 989.25 483.813 988.717 485.84L984.717 500.72H992.157C994.557 500.72 996.397 499.893 997.677 498.24C999.01 496.533 1000.18 494.373 1001.2 491.76H1003.04C1001.76 495.547 1000.8 498.8 1000.16 501.52L999.677 503.28C998.877 506.32 998.317 508.987 997.997 511.28H996.157C996.21 510.96 996.29 510.4 996.397 509.6C996.504 508.8 996.557 508.107 996.557 507.52C996.557 505.92 996.13 504.667 995.277 503.76C994.477 502.8 993.01 502.32 990.877 502.32H984.237L980.157 517.52C979.677 519.547 979.437 520.827 979.437 521.36C979.437 522.533 979.81 523.307 980.557 523.68C981.357 524 982.797 524.16 984.877 524.16H990.717C993.65 524.16 996.077 523.707 997.997 522.8C999.97 521.893 1001.68 520.427 1003.12 518.4C1004.61 516.373 1006.02 513.573 1007.36 510H1009.2C1008.24 512.827 1007.6 515.013 1007.28 516.56C1006.69 518.533 1006.02 521.68 1005.28 526C1001.54 525.84 995.277 525.76 986.477 525.76C976.61 525.76 969.144 525.84 964.077 526L964.477 524.4C966.397 524.293 967.837 524.08 968.797 523.76C969.757 523.44 970.504 522.827 971.037 521.92C971.624 521.013 972.184 519.547 972.717 517.52L981.277 485.84C981.757 483.813 981.997 482.507 981.997 481.92C981.997 480.8 981.597 480.053 980.797 479.68C980.05 479.307 978.664 479.067 976.637 478.96L977.037 477.36C982.05 477.52 989.49 477.6 999.357 477.6ZM1081.21 473.68C1082.91 473.68 1084.14 474.053 1084.89 474.8C1085.63 475.547 1086.01 476.533 1086.01 477.76C1086.01 479.2 1085.58 480.533 1084.73 481.76C1083.87 482.933 1082.73 483.52 1081.29 483.52C1080.22 483.52 1079.45 483.227 1078.97 482.64C1078.49 482 1078.25 481.253 1078.25 480.4C1078.25 479.547 1078.49 478.667 1078.97 477.76C1079.45 476.8 1080.06 476 1080.81 475.36H1080.57C1079.18 475.413 1077.95 475.787 1076.89 476.48C1075.87 477.173 1074.91 478.16 1074.01 479.44C1071.66 482.8 1069.15 488.293 1066.49 495.92C1063.87 503.547 1061.02 513.707 1057.93 526.4H1056.17L1037.93 482.56C1032.22 507.52 1027.53 522.293 1023.85 526.88C1022.57 528.48 1021.29 529.707 1020.01 530.56C1018.78 531.467 1017.21 531.92 1015.29 531.92C1012.09 531.92 1010.49 530.533 1010.49 527.76C1010.49 526.32 1010.91 525.013 1011.77 523.84C1012.62 522.667 1013.77 522.08 1015.21 522.08C1016.27 522.08 1017.05 522.4 1017.53 523.04C1018.01 523.627 1018.25 524.347 1018.25 525.2C1018.25 526.053 1018.01 526.933 1017.53 527.84C1017.05 528.747 1016.43 529.547 1015.69 530.24H1015.85C1018.41 530.187 1020.65 528.8 1022.57 526.08C1026.41 520.373 1030.94 505.947 1036.17 482.8C1036.27 481.307 1035.9 480.32 1035.05 479.84C1034.25 479.36 1032.57 479.067 1030.01 478.96L1030.41 477.36C1032.11 477.52 1034.49 477.6 1037.53 477.6C1039.98 477.6 1042.14 477.52 1044.01 477.36L1059.21 515.04C1064.33 495.84 1068.78 483.76 1072.57 478.8C1075.13 475.387 1078.01 473.68 1081.21 473.68ZM1134.96 468.64C1136.13 468.64 1137.01 469.013 1137.6 469.76C1138.24 470.453 1138.56 471.333 1138.56 472.4C1138.56 474.533 1137.33 476.507 1134.88 478.32C1133.33 479.227 1131.7 479.893 1130 480.32C1128.29 480.693 1126.24 480.88 1123.84 480.88C1121.81 480.88 1119.54 480.747 1117.04 480.48L1106.56 516.72C1106.08 518.32 1105.84 519.653 1105.84 520.72C1105.84 522.053 1106.34 522.987 1107.36 523.52C1108.37 524.053 1110.1 524.347 1112.56 524.4L1112.24 526C1109.46 525.84 1105.49 525.76 1100.32 525.76C1095.09 525.76 1091.2 525.84 1088.64 526L1088.96 524.4C1091.25 524.293 1093.01 524.027 1094.24 523.6C1095.46 523.173 1096.42 522.453 1097.12 521.44C1097.86 520.427 1098.53 518.853 1099.12 516.72L1109.92 479.44C1105.22 478.8 1101.86 478.48 1099.84 478.48C1096.42 478.48 1093.92 478.933 1092.32 479.84C1092.74 480.427 1093.09 481.147 1093.36 482C1093.62 482.853 1093.76 483.68 1093.76 484.48C1093.76 485.707 1093.41 486.8 1092.72 487.76C1092.02 488.667 1091.04 489.12 1089.76 489.12C1088.64 489.12 1087.76 488.773 1087.12 488.08C1086.53 487.333 1086.24 486.347 1086.24 485.12C1086.24 482.4 1087.62 480.32 1090.4 478.88C1092.69 477.653 1095.7 477.04 1099.44 477.04C1102.48 477.04 1106.72 477.413 1112.16 478.16C1114.13 478.427 1116.16 478.693 1118.24 478.96C1120.37 479.173 1122.34 479.28 1124.16 479.28C1126.13 479.28 1127.78 479.147 1129.12 478.88C1130.45 478.613 1131.76 478.16 1133.04 477.52C1131.7 476.187 1131.04 474.693 1131.04 473.04C1131.04 471.867 1131.36 470.853 1132 470C1132.69 469.093 1133.68 468.64 1134.96 468.64Z" fill="black"/>
<path d="M502.56 406.32C505.36 410.613 508.253 414.067 511.24 416.68C514.227 419.293 518.053 421.533 522.72 423.4V429C509.653 428.44 495.093 428.16 479.04 428.16C466.72 428.16 454.867 428.44 443.48 429V423.4C448.707 423.027 452.44 422.467 454.68 421.72C457.107 420.973 458.32 419.667 458.32 417.8C458.32 416.307 457.293 413.973 455.24 410.8L414.64 345C410.907 339.027 407.733 335.013 405.12 332.96C402.693 330.907 399.333 329.693 395.04 329.32V399.32C395.04 406.413 395.507 411.547 396.44 414.72C397.56 417.893 399.52 420.04 402.32 421.16C405.12 422.28 409.693 423.027 416.04 423.4V429C405.96 428.44 391.867 428.16 373.76 428.16C353.787 428.16 339.04 428.44 329.52 429V423.4C335.68 423.027 340.16 422.28 342.96 421.16C345.947 420.04 347.907 417.893 348.84 414.72C349.96 411.547 350.52 406.413 350.52 399.32V260.44C350.52 253.347 349.96 248.213 348.84 245.04C347.907 241.867 345.947 239.72 342.96 238.6C340.16 237.48 335.68 236.733 329.52 236.36V230.76C339.04 231.32 353.787 231.6 373.76 231.6C391.867 231.6 405.96 231.32 416.04 230.76V236.36C409.693 236.733 405.12 237.48 402.32 238.6C399.52 239.72 397.56 241.867 396.44 245.04C395.507 248.213 395.04 253.347 395.04 260.44V323.44C402.507 323.067 409.32 320.827 415.48 316.72C421.64 312.613 428.64 306.08 436.48 297.12L453 277.24C461.587 267.347 465.88 258.667 465.88 251.2C465.88 246.72 464.013 243.173 460.28 240.56C456.733 237.947 451.693 236.453 445.16 236.08V230.76C458.787 231.32 472.6 231.6 486.6 231.6C497.427 231.6 506.2 231.32 512.92 230.76V236.08C497.987 239.627 484.453 248.587 472.32 262.96L437.32 304.68L502.56 406.32ZM617.603 236.36C610.883 236.733 605.936 237.48 602.763 238.6C599.776 239.72 597.723 241.867 596.603 245.04C595.483 248.213 594.923 253.347 594.923 260.44V402.68C594.923 408.653 595.389 413.04 596.323 415.84C597.256 418.453 598.843 420.227 601.083 421.16C603.509 422.093 607.336 422.56 612.563 422.56H626.283C638.976 422.56 649.896 416.867 659.043 405.48C668.376 394.093 674.443 378.973 677.243 360.12H683.683C683.123 366.467 682.843 374.68 682.843 384.76C682.843 402.68 683.496 417.427 684.803 429C672.109 428.44 650.736 428.16 620.683 428.16C579.989 428.16 549.563 428.44 529.403 429V423.4C535.563 423.027 540.043 422.28 542.843 421.16C545.829 420.04 547.789 417.893 548.723 414.72C549.843 411.547 550.403 406.413 550.403 399.32V260.44C550.403 253.347 549.843 248.213 548.723 245.04C547.789 241.867 545.829 239.72 542.843 238.6C540.043 237.48 535.563 236.733 529.403 236.36V230.76C538.923 231.32 553.669 231.6 573.643 231.6C592.683 231.6 607.336 231.32 617.603 230.76V236.36ZM821.753 231.32C830.34 231.32 837.433 231.04 843.033 230.48V236.08C834.447 239.627 825.487 250.453 816.153 268.56L783.113 334.08V399.32C783.113 406.413 783.58 411.547 784.513 414.72C785.633 417.893 787.593 420.04 790.393 421.16C793.193 422.28 797.767 423.027 804.113 423.4V429C794.033 428.44 779.66 428.16 760.993 428.16C741.02 428.16 726.553 428.44 717.593 429V423.4C723.753 423.027 728.233 422.28 731.033 421.16C734.02 420.04 735.98 417.893 736.913 414.72C738.033 411.547 738.593 406.413 738.593 399.32V352L684.553 252.04C678.767 241.587 673.353 236.36 668.313 236.36V230.48C676.527 231.413 687.54 231.88 701.353 231.88C718.713 231.88 736.26 231.413 753.993 230.48V236.36C747.46 236.36 742.233 237.013 738.313 238.32C734.58 239.44 732.713 241.587 732.713 244.76C732.713 246.44 733.367 248.493 734.673 250.92L777.233 332.96L799.073 289.28C806.353 274.533 809.993 262.96 809.993 254.56C809.993 248.213 807.94 243.64 803.833 240.84C799.913 238.04 794.22 236.453 786.753 236.08V230.48C799.447 231.04 811.113 231.32 821.753 231.32ZM1013.29 231.6C1021.87 231.6 1028.97 231.32 1034.57 230.76V236.36C1029.9 238.04 1025.33 241.587 1020.85 247C1016.37 252.413 1012.35 259.973 1008.81 269.68L949.727 429.56C947.673 429.373 944.407 429.28 939.927 429.28C935.633 429.28 932.46 429.373 930.407 429.56L859.007 254.28C856.58 248.12 853.78 243.64 850.607 240.84C847.433 238.04 844.353 236.547 841.367 236.36V230.76C852.567 231.32 866.753 231.6 883.927 231.6C903.153 231.6 917.34 231.32 926.487 230.76V236.36C919.393 236.733 914.353 237.573 911.367 238.88C908.38 240.187 906.887 242.8 906.887 246.72C906.887 249.893 908.007 254.28 910.247 259.88L959.527 385.32L993.967 292.36C999.193 277.987 1001.81 266.6 1001.81 258.2C1001.81 250.733 999.753 245.32 995.647 241.96C991.727 238.6 985.94 236.733 978.287 236.36V230.76C990.98 231.32 1002.65 231.6 1013.29 231.6Z" fill="black"/>
</svg>
